<?xml version="1.0" encoding="UTF-8"?>
<!-- Generator: Adobe Illustrator 25.0.0, SVG Export Plug-In . SVG Version: 6.00 Build 0)  -->
<svg version="1.1" id="Layer_1" xmlns="http://www.w3.org/2000/svg" xmlns:xlink="http://www.w3.org/1999/xlink" x="0px" y="0px" viewBox="0 0 173.3 50" style="enable-background:new 0 0 173.3 50;" xml:space="preserve">
<style type="text/css">
	.st0{fill:#ED2F57;}
	.st1{fill:#FFFFFF;}
	.st2{fill:#EE3057;}
</style>
<circle class="st0" cx="25" cy="25" r="25"/>
<path id="Path_2110" class="st1" d="M33.8,25.1c2.9-2.6,3-7.1,0.4-10s-7.1-3-10-0.4c-1.4,1.3-2.3,3.2-2.3,5.2c0,0.1,0,0.3,0,0.4  s0,0.2,0,0.3c0,0.1,0,0.2,0,0.3c0,0.1,0,0.2,0,0.2c0,0.1,0,0.2,0.1,0.3c0,0.1,0.1,0.2,0.1,0.4c0,0,0,0,0,0.1s0,0.1,0.1,0.2  c0,0.1,0,0.1,0.1,0.2v0.1c0,0.1,0.1,0.2,0.1,0.3c0,0.1,0.1,0.2,0.1,0.3c0.2,0.3,0.3,0.6,0.5,0.9c0,0.1,0.1,0.1,0.2,0.2  c0.1,0.1,0.1,0.2,0.2,0.3l0.1,0.1c0.1,0.1,0.1,0.2,0.2,0.2c0.1,0.1,0.1,0.1,0.2,0.2L24,25l0.2,0.2l0.2,0.2c0.3,0.2,0.6,0.5,0.9,0.7  h0.1l0.2,0.1c0.1,0.1,0.2,0.1,0.4,0.2h0.1c0.1,0.1,0.2,0.1,0.4,0.2l0.4,0.1H27c0.1,0,0.2,0.1,0.3,0.1s0.3,0.1,0.4,0.1  c0.1,0,0.2,0,0.3,0s0.1,0,0.2,0c0.3,0,0.5,0,0.8,0h0.8h0.3c0.1,0,0.2,0,0.4-0.1c0.1,0,0.3-0.1,0.4-0.1s0.3-0.1,0.4-0.1  s0.3-0.1,0.4-0.2h0.1c0.1,0,0.2-0.1,0.3-0.2c0.3-0.1,0.5-0.3,0.8-0.4l5.3,5.7l0.8-0.8L33.8,25.1z M25,24.5c-0.2-0.1-0.3-0.3-0.5-0.5  c-0.1-0.1-0.1-0.1-0.2-0.2c-0.1-0.1-0.1-0.1-0.1-0.2c-0.1-0.1-0.1-0.2-0.2-0.3s-0.2-0.3-0.2-0.4c-0.1-0.1-0.1-0.2-0.2-0.3  c-0.1-0.1-0.1-0.2-0.2-0.3c-0.1-0.3-0.2-0.6-0.3-0.8c0-0.1-0.1-0.2-0.1-0.4c0-0.1,0-0.2-0.1-0.4v-0.1c0-0.1,0-0.2,0-0.3v-0.5  c-0.1-3.4,2.6-6.3,6.1-6.4c3.4-0.1,6.3,2.6,6.4,6.1c0,0.1,0,0.2,0,0.3v0.3c0,0.1,0,0.2,0,0.4v0.2c0,0.1,0,0.2-0.1,0.3l-0.1,0.3v0.1  c-0.2,0.7-0.5,1.3-0.9,1.9c-0.1,0.1-0.2,0.2-0.2,0.3L34,23.7c-0.1,0.1-0.2,0.2-0.3,0.3c-0.1,0.1-0.2,0.2-0.3,0.3  c-0.1,0.1-0.2,0.2-0.4,0.3s-0.2,0.2-0.4,0.3c-0.1,0.1-0.3,0.2-0.4,0.2c-0.3,0.2-0.5,0.3-0.8,0.4c-0.1,0-0.2,0.1-0.2,0.1l-0.3,0.1  h-0.2l-0.3,0.1c-0.4,0.1-0.8,0.1-1.2,0.1h-0.3c-0.1,0-0.1,0-0.2,0c-0.1,0-0.2,0-0.3,0s-0.2,0-0.4-0.1c-0.1,0-0.3-0.1-0.4-0.1  c-0.1,0-0.3-0.1-0.4-0.1c-0.1,0-0.2-0.1-0.3-0.1h-0.1c-0.1,0-0.2-0.1-0.3-0.1c-0.1-0.1-0.2-0.1-0.3-0.2S26,25.1,25.9,25l-0.3-0.2  l-0.2-0.2C25,24.6,25,24.6,25,24.5L25,24.5z"/>
<rect id="Rectangle_4395" x="20.3" y="32.2" class="st1" width="7" height="0.8"/>
<rect id="Rectangle_4396" x="20.3" y="30.1" class="st1" width="8.3" height="0.8"/>
<path id="Path_2111" class="st1" d="M13.6,33v0.4h5V33c0-0.9-0.5-1.7-1.3-2.2l0,0c0.6-0.7,0.6-1.7-0.1-2.3c-0.7-0.6-1.7-0.6-2.3,0.1  c-0.6,0.6-0.6,1.6,0,2.3l0,0C14,31.2,13.6,32.1,13.6,33z M14.5,32.6L14.5,32.6c0.2-0.9,1.1-1.4,2-1.2c0.6,0.1,1.1,0.6,1.2,1.2H14.5z   M16,30.5c0,0.4,0.4,0.8,0.8,0.8c0.4,0,0.8-0.4,0.8-0.8s-0.4-0.8-0.8-0.8C16.3,29.7,16,30.1,16,30.5L16,30.5z"/>
<rect id="Rectangle_4397" x="20.3" y="27.9" class="st1" width="5.4" height="0.8"/>
<path id="Path_2112" class="st1" d="M30.5,24.7L30.5,24.7c0.3-0.1,0.6-0.2,0.8-0.3l0,0v-2.7h-7v0.1c0.1,0.2,0.2,0.5,0.3,0.7l0,0h5.8  L30.5,24.7C30.4,24.7,30.5,24.7,30.5,24.7z"/>
<path id="Path_2113" class="st1" d="M30.3,28.2L30.3,28.2l-0.1,5.6c0,0.5-0.4,0.8-0.8,0.8l0,0H12.8c-0.5,0-0.8-0.4-0.8-0.8l0,0v-7.5  h11.3l-0.2-0.1c-0.2-0.2-0.4-0.4-0.6-0.7H12v-2.9h8.9v-0.1c-0.1-0.2-0.1-0.4-0.2-0.7v-0.1h-9.5v12c0,0.9,0.7,1.7,1.7,1.7h16.6  c0.9,0,1.7-0.7,1.7-1.7V28h-0.1C30.8,28.1,30.5,28.2,30.3,28.2z"/>
<g id="Group_6227" transform="translate(7499 -6754.368)">
	<g id="Group_3441" transform="translate(-6999 7583.368)">
		<path id="Path_2556" class="st2" d="M-434.9-810.6c-2.1,0-4.1-1.2-4.1-3.5c0-0.2,0-0.4,0-0.6h1.3c0,0.2,0,0.4,0,0.6    c0,1.5,1.4,2.3,2.8,2.3s2.3-0.6,2.3-1.9c0-1.4-1.2-1.7-2.6-2c-1.6-0.4-3.3-0.8-3.3-3.1c-0.1-1.7,1.2-3.1,2.9-3.2    c0.2,0,0.3,0,0.5,0c1.4-0.1,2.7,0.7,3.4,1.9l-1.2,0.6c-0.5-0.8-1.4-1.3-2.3-1.3c-1-0.1-1.9,0.7-1.9,1.7v0.1c0,1.4,1.3,1.7,2.6,2    c1.6,0.4,3.3,0.8,3.3,3S-433-810.6-434.9-810.6z"/>
		<path id="Path_2557" class="st2" d="M-414.3-821.8l-3,11.1h-1.4l-2.4-8.8l-2.4,8.8h-1.4l-3-11.1h1.4l2.4,8.9l2.3-8.9h1.4l2.3,8.9    l2.3-8.9H-414.3z"/>
		<path id="Path_2558" class="st2" d="M-410.4-810.8v-11h1.3v11.1L-410.4-810.8L-410.4-810.8z"/>
		<path id="Path_2559" class="st2" d="M-400.8-810.6c-2.1,0-4.1-1.2-4.1-3.5c0-0.2,0-0.4,0-0.6h1.3c0,0.2,0,0.4,0,0.6    c0,1.5,1.4,2.3,2.8,2.3s2.3-0.6,2.3-1.9c0-1.4-1.3-1.7-2.6-2c-1.6-0.4-3.3-0.8-3.3-3.1c-0.1-1.7,1.2-3.1,2.9-3.2    c0.2,0,0.3,0,0.5,0c1.4-0.1,2.7,0.7,3.4,1.9l-1.2,0.6c-0.5-0.8-1.4-1.3-2.3-1.3c-1-0.1-1.9,0.7-1.9,1.7v0.1c0,1.4,1.3,1.7,2.6,2    c1.6,0.4,3.3,0.8,3.3,3S-398.8-810.6-400.8-810.6z"/>
		<path id="Path_2560" class="st2" d="M-389.4-810.6c-2.1,0-4.1-1.2-4.1-3.5c0-0.2,0-0.4,0-0.6h1.4c0,0.2,0,0.4,0,0.6    c0,1.5,1.4,2.3,2.8,2.3s2.3-0.6,2.3-1.9c0-1.4-1.2-1.7-2.6-2c-1.6-0.4-3.3-0.8-3.3-3.1c-0.1-1.7,1.2-3.1,2.9-3.2    c0.2,0,0.3,0,0.5,0c1.4-0.1,2.7,0.7,3.4,1.9l-1.2,0.6c-0.5-0.8-1.4-1.3-2.3-1.3c-1-0.1-1.8,0.7-1.9,1.7v0.1c0,1.4,1.3,1.7,2.6,2    c1.6,0.4,3.3,0.8,3.3,3S-387.6-810.6-389.4-810.6z"/>
	</g>
	<g id="Group_3440" transform="translate(-6999 7600.935)">
		<path id="Path_2561" class="st2" d="M-434.7-810.4c0,2.2,1.5,3,3.2,3c1.3,0,2.1-0.5,2.1-1.4c0-1.1-1.2-1.4-3.6-2.2    c-2.2-0.7-4.9-1.7-4.9-4.8s2.9-4.8,5.9-4.8c2.5,0,5.1,1.2,6,3.6l-3.5,1.7c-0.4-1-1.4-1.7-2.5-1.7c-0.8,0-1.6,0.4-1.6,1.2    c0,1.1,1.4,1.4,3.2,1.9c2.9,0.9,5.3,1.9,5.3,4.8c0,3.5-3.2,5.3-6.5,5.3c-3.6,0-7.3-2.1-7.3-6.5L-434.7-810.4z"/>
		<path id="Path_2562" class="st2" d="M-424.2-807.7c0-2.4,1.6-3.6,4.1-3.6c1.4,0,2.7,0.3,3.9,0.8v-1c0-0.8-0.7-1.4-1.5-1.4    c0,0,0,0-0.1,0c-0.7-0.1-1.5,0.3-1.8,1l-3.8-1.4c0.8-1.9,2.6-3.2,5.7-3.2s5.6,1.5,5.6,4.8v7.5h-4.1v-1.4c-1.1,1-2.5,1.6-3.9,1.6    C-422.4-803.8-424.2-805.2-424.2-807.7z M-416.3-808.6h-4.5c0,1.1,0.6,1.6,1.8,1.6C-418-807-416.8-807.6-416.3-808.6z"/>
		<path id="Path_2563" class="st2" d="M-398.2-804.1h-4.2v-6.4c0-1.4-0.8-2-1.6-2c-1,0.1-1.8,0.9-1.7,2l0,0v6.4h-4.2v-12h4.1v2    c0.6-1.4,2-2.3,3.5-2.2c2.2-0.1,4.1,1.6,4.2,3.8c0,0.1,0,0.2,0,0.3L-398.2-804.1z"/>
		<path id="Path_2564" class="st2" d="M-396.7-810.2c0-4.1,2.8-6.2,6.2-6.2c2-0.1,4,0.8,5.3,2.3l-2.9,2.3c-0.5-0.7-1.3-1.1-2.1-1.1    c-1.2,0-2.3,1-2.3,2.2c0,0.1,0,0.2,0,0.3c-0.1,1.4,0.9,2.5,2.2,2.7c0.1,0,0.1,0,0.2,0c1.1,0.1,2-0.7,2.1-1.8c0-0.1,0-0.2,0-0.4h4    c0,3.9-3,5.9-6.2,5.9S-396.7-805.9-396.7-810.2z"/>
		<path id="Path_2565" class="st2" d="M-375.3-807.4h0.7v3.3h-1.7c-3.9,0-5.2-1.6-5.2-4.4v-4.6h-2.2v-3h2.2v-3.2h4.2v3    c0.9-0.1,1.8-0.2,2.6-0.4l0.9,2.9c-1.1,0.4-2.3,0.5-3.5,0.5v4.1C-377.3-807.8-376.7-807.4-375.3-807.4z"/>
		<path id="Path_2566" class="st2" d="M-372.7-819.5c0-1.4,1.1-2.5,2.5-2.5s2.5,1.1,2.5,2.5s-1.1,2.5-2.5,2.5    c-1.3,0.1-2.4-0.9-2.5-2.2C-372.7-819.3-372.7-819.4-372.7-819.5z M-372.3-804.1v-12h4.2v12H-372.3z"/>
		<path id="Path_2567" class="st2" d="M-353.4-810.1c0,3.7-2.7,6.2-6.4,6.2c-3.8,0-6.4-2.5-6.4-6.2c0.1-3.6,3-6.4,6.6-6.3    C-356.3-816.3-353.6-813.5-353.4-810.1L-353.4-810.1z M-357.7-810.1c0-1.9-1-2.7-2.2-2.7s-2.2,0.8-2.2,2.7s1,2.7,2.2,2.7    S-357.7-808.2-357.7-810.1z"/>
		<path id="Path_2568" class="st2" d="M-340.2-804.1h-4.2v-6.4c0-1.4-0.8-2-1.6-2c-1,0.1-1.8,0.9-1.8,2l0,0v6.4h-4.2v-12h4.1v2    c0.6-1.4,2-2.3,3.5-2.2c2.2-0.1,4.1,1.6,4.2,3.8c0,0.1,0,0.2,0,0.3V-804.1z"/>
		<path id="Path_2569" class="st2" d="M-332.4-806.6c1,0,1.8-0.2,1.8-0.8s-0.7-0.7-2-1c-2.2-0.4-5.4-0.9-5.4-4    c0-2.9,2.7-3.9,5.4-3.9c1.9-0.1,3.7,0.6,5.1,1.8l-2.1,2.5c-0.8-0.8-1.8-1.2-2.9-1.2c-1,0-1.6,0.3-1.6,0.9c0,0.6,0.5,0.8,1.6,1    c2,0.4,5.8,0.6,5.8,3.7c0,2.6-2.6,3.9-5.8,3.9c-3.3,0-6.5-1.4-6.5-4.5h4C-334.8-807.2-333.7-806.6-332.4-806.6z"/>
	</g>
</g>
</svg>